<?xml version="1.0" standalone="no"?>
<!DOCTYPE svg PUBLIC "-//W3C//DTD SVG 20010904//EN"
 "http://www.w3.org/TR/2001/REC-SVG-20010904/DTD/svg10.dtd">
<svg version="1.0" xmlns="http://www.w3.org/2000/svg"
 width="1000.000000pt" height="597.000000pt" viewBox="0 0 1000.000000 597.000000"
 preserveAspectRatio="xMidYMid meet">

<g transform="translate(0.000000,597.000000) scale(0.100000,-0.100000)"
fill="#000000" stroke="none">
<path d="M195 2875 c-5 -11 -10 -24 -13 -29 -3 -5 2 -7 11 -3 9 3 18 1 21 -6
3 -7 4 -6 5 3 0 8 -4 24 -9 35 l-8 20 -7 -20z"/>
<path d="M2 2132 c3 -648 5 -751 18 -767 14 -17 13 -18 -2 -12 -17 6 -18 -9
-18 -222 0 -174 3 -231 13 -234 9 -4 9 -6 0 -6 -10 -1 -13 -97 -13 -446 l0
-445 1530 0 1530 0 0 175 0 175 -29 0 c-17 0 -33 5 -36 10 -4 6 5 10 22 10 15
0 42 2 60 6 28 5 31 8 20 25 -10 16 -9 21 3 29 13 8 13 13 2 30 -8 13 -10 26
-4 33 12 17 13 57 0 57 -7 0 -7 5 1 14 6 8 9 28 6 45 -3 17 -1 31 3 31 5 0 11
-90 14 -200 4 -131 10 -205 17 -214 7 -8 11 -25 10 -38 -1 -12 -1 -60 -1 -105
l2 -83 684 0 c644 0 685 1 689 18 4 16 5 16 6 0 1 -17 22 -18 286 -18 l285 0
0 80 c0 47 4 80 10 80 6 0 10 -33 10 -80 l0 -80 2440 0 2440 0 -2 1268 c0 697
-4 1247 -7 1223 -8 -61 -28 -64 -36 -7 -4 25 -12 46 -17 46 -5 0 -6 -9 -3 -20
11 -34 -14 -22 -32 14 -13 29 -19 33 -34 25 -25 -13 -29 -12 -29 10 0 29 -42
22 -51 -9 l-7 -25 -7 23 c-6 18 -10 20 -16 10 -5 -7 -6 -21 -3 -32 4 -13 2
-16 -6 -11 -7 5 -11 1 -10 -11 4 -34 0 -54 -10 -54 -5 0 -10 8 -10 18 -1 15
-2 15 -13 2 -7 -9 -21 -15 -32 -15 -16 0 -21 9 -26 40 -5 39 -13 35 -22 -10
-3 -16 -6 -14 -17 13 -11 30 -39 40 -32 12 2 -7 0 -20 -4 -29 -10 -23 -11 -28
-13 -57 -1 -21 -5 -25 -21 -21 -11 3 -20 1 -20 -4 0 -5 -13 -9 -29 -9 -31 0
-40 -13 -42 -58 -1 -25 -2 -25 -9 5 -14 58 -40 105 -57 99 -8 -3 -18 -6 -21
-6 -17 0 -33 -65 -37 -142 -1 -46 -3 -87 -4 -91 -1 -12 -22 -4 -23 8 0 18 -19
34 -34 28 -11 -4 -12 -9 -4 -18 8 -10 5 -13 -15 -11 -25 1 -32 10 -16 20 5 4
1 24 -10 46 -24 48 -24 46 4 54 l22 6 -21 18 c-18 15 -22 33 -28 127 -4 61 -7
142 -8 180 -1 39 -3 62 -6 53 -2 -10 -8 -18 -12 -18 -5 0 -11 -73 -12 -162 -3
-155 -4 -163 -23 -163 -18 0 -20 8 -25 112 -6 119 -19 163 -22 72 l-1 -54 -7
45 c-5 30 -7 36 -8 18 -3 -53 -21 -28 -25 35 -2 47 -4 37 -7 -45 -5 -145 -6
-168 -11 -173 -8 -7 -84 -9 -96 -2 -6 4 -13 82 -17 199 -4 106 -11 197 -15
201 -12 12 -32 -153 -34 -283 l-2 -115 -95 0 -95 0 -10 162 c-5 89 -13 165
-17 169 -8 8 -11 -29 -14 -196 -1 -52 -2 -104 -3 -115 -1 -18 -8 -20 -56 -19
-31 0 -60 5 -65 10 -5 5 -14 41 -19 79 -5 42 -9 56 -10 35 -1 -27 -4 -32 -11
-20 -8 11 -10 6 -9 -20 3 -65 0 -80 -18 -80 -30 0 -48 -17 -36 -32 14 -16 16
-118 2 -118 -5 0 -9 6 -9 13 -1 7 -7 4 -15 -7 -14 -18 -18 -18 -82 -5 -66 15
-68 16 -69 48 -2 45 -16 55 -42 30 -12 -11 -20 -24 -17 -29 3 -4 -2 -10 -10
-13 -9 -4 -12 -1 -8 9 4 11 -8 14 -66 14 -59 0 -71 -3 -71 -16 0 -10 -5 -14
-16 -10 -8 3 -12 2 -9 -4 3 -6 -2 -10 -12 -10 -10 -1 -42 -3 -72 -6 -36 -4
-56 -2 -61 6 -10 16 -50 3 -50 -15 0 -14 -33 -38 -41 -31 -2 2 -10 -2 -17 -10
-11 -12 -10 -14 3 -14 8 0 15 -4 15 -10 0 -5 -5 -10 -11 -10 -6 0 -9 -6 -6
-13 3 -8 1 -20 -4 -28 -7 -12 -9 -12 -10 1 -1 8 -1 19 0 24 1 6 -70 0 -75 -7
-10 -15 -11 -67 -1 -71 7 -2 3 -5 -8 -5 -17 -1 -17 -3 -5 -11 10 -6 11 -10 3
-10 -17 0 -17 -37 0 -43 9 -4 8 -8 -3 -16 -8 -6 -10 -11 -4 -11 7 0 14 -9 17
-21 5 -18 10 -20 39 -14 18 4 39 12 46 17 9 8 12 6 12 -6 0 -10 -8 -16 -22
-16 -13 0 -30 -5 -38 -10 -11 -7 -2 -8 28 -4 47 7 59 -11 22 -34 -14 -8 -20
-9 -20 -1 0 6 -9 9 -20 6 -11 -3 -20 -1 -20 4 0 5 -4 9 -9 9 -5 0 -12 -17 -16
-37 -6 -32 -9 -35 -15 -18 -5 11 -9 14 -9 8 -1 -7 -5 -13 -11 -13 -5 0 -11 49
-12 113 -2 76 -6 106 -12 92 -18 -41 -64 -78 -50 -40 4 9 0 15 -9 15 -9 0 -19
4 -22 10 -3 6 1 7 10 4 18 -7 17 13 -2 34 -7 7 -11 31 -10 52 3 33 0 40 -17
43 -21 4 -21 4 -1 6 19 1 20 6 17 74 -3 39 -9 75 -16 79 -8 6 -7 8 2 8 6 0 12
5 12 10 0 18 -38 11 -42 -8 -3 -10 -5 -53 -4 -95 1 -57 -2 -77 -11 -77 -13 0
-17 11 -14 42 1 10 -4 27 -12 39 -14 20 -16 20 -25 2 -6 -10 -16 -18 -24 -19
-7 0 -21 -2 -30 -2 -10 -1 -18 -6 -18 -10 0 -12 58 -13 65 -1 11 17 23 9 18
-12 -7 -26 -29 -35 -48 -19 -8 6 -22 10 -32 7 -14 -4 -13 -5 5 -6 12 0 22 -4
22 -8 0 -5 -22 -6 -50 -5 -27 2 -49 7 -49 10 1 4 0 30 -1 57 l-2 50 -12 -50
-12 -50 -8 98 c-7 88 -9 96 -21 75 -6 -14 -10 -39 -7 -56 2 -20 0 -32 -7 -32
-6 0 -11 20 -12 48 0 26 -3 40 -7 32 -10 -22 -62 -21 -62 1 0 9 -10 19 -22 23
-35 9 -80 7 -74 -3 3 -5 -1 -11 -9 -15 -10 -4 -15 -20 -15 -54 0 -37 -4 -49
-15 -49 -11 0 -15 12 -16 41 -2 117 -4 131 -19 131 -8 0 -15 -9 -15 -20 0 -18
-6 -21 -35 -16 -5 0 -7 14 -3 31 6 34 -12 42 -22 10 -5 -15 -12 -19 -25 -15
-10 3 -21 1 -25 -5 -3 -6 -10 -8 -14 -5 -11 6 -29 -59 -33 -112 -1 -33 -6 -43
-19 -43 -27 0 -44 -27 -29 -45 7 -9 10 -18 7 -21 -10 -11 -123 -32 -151 -29
-38 5 -56 -13 -44 -44 7 -19 4 -29 -14 -49 -13 -14 -18 -22 -12 -19 13 8 29
-89 19 -115 -9 -22 -35 -31 -35 -13 0 8 5 15 10 15 6 0 9 21 9 48 -1 26 -3 39
-6 30 -10 -40 -18 -13 -18 58 1 41 -3 78 -7 80 -18 12 -6 24 25 25 27 0 29 2
12 9 -43 19 -118 5 -85 -15 12 -7 13 -75 3 -155 -5 -45 -8 -50 -14 -30 -4 14
-8 54 -9 90 -1 36 -4 58 -7 49 -3 -11 -11 -15 -24 -12 -14 4 -17 9 -9 18 6 7
8 20 4 29 -4 11 -1 16 10 16 9 0 16 -7 16 -17 0 -9 3 -14 6 -10 12 12 -8 47
-27 47 -10 0 -19 6 -19 14 0 19 -15 23 -99 32 -39 3 -71 10 -71 14 0 26 -99
-34 -101 -60 0 -10 -2 -11 -6 -2 -2 6 -17 11 -31 11 -24 -2 -25 -2 -4 -6 12
-2 19 -9 16 -15 -4 -6 0 -14 7 -19 10 -6 8 -9 -8 -9 -16 0 -21 4 -17 15 4 10
0 15 -15 15 -15 0 -21 -5 -19 -17 2 -11 -2 -17 -11 -15 -8 2 -11 -3 -8 -13 4
-8 2 -15 -3 -15 -6 0 -10 -15 -10 -34 0 -32 -14 -55 -26 -43 -3 2 -6 27 -7 56
-1 28 -3 51 -5 51 -1 0 -7 -10 -12 -23 -7 -17 -9 -18 -9 -4 -1 9 -8 17 -16 17
-8 0 -15 5 -15 10 0 6 11 10 25 10 14 0 25 4 25 10 0 5 -13 7 -30 3 -23 -4
-30 -2 -31 11 -1 9 -2 21 -3 28 -2 17 -41 26 -123 27 -39 1 -75 5 -78 11 -3 6
-15 10 -26 10 -28 0 -21 34 9 38 27 4 30 22 3 22 -10 0 -24 7 -31 15 -14 17
-90 21 -90 5 0 -5 9 -10 19 -10 11 0 23 -5 27 -11 4 -6 -1 -9 -13 -7 -11 2
-22 -1 -24 -7 -2 -5 11 -11 29 -13 24 -2 32 -8 32 -23 0 -10 -3 -18 -7 -18
-29 5 -35 -2 -16 -18 11 -10 20 -30 20 -45 1 -16 1 -73 2 -128 1 -95 2 -100
22 -100 15 0 19 -4 15 -16 -3 -9 -6 -24 -6 -35 0 -10 -6 -19 -14 -19 -8 0 -17
-6 -19 -12 -3 -7 -6 5 -6 26 -1 42 -8 45 -14 5 -3 -15 -11 -25 -25 -27 -12 -2
-22 -8 -22 -13 0 -6 -10 -9 -22 -7 -20 3 -23 9 -23 48 -1 25 -4 51 -9 58 -6
10 -1 11 18 6 16 -4 26 -2 26 5 0 6 -5 11 -11 11 -8 0 -10 20 -7 60 3 36 0 62
-6 65 -7 3 -7 7 2 11 6 3 12 10 12 15 0 6 -4 8 -8 5 -5 -3 -8 5 -7 17 1 12 -1
27 -5 32 -4 6 -11 25 -15 43 -8 39 -14 39 -39 5 -11 -14 -14 -23 -8 -19 6 3
13 2 17 -4 3 -6 -2 -13 -12 -17 -10 -3 -22 -12 -26 -20 -11 -18 -53 -17 -61 2
-3 8 -10 15 -17 15 -7 0 -10 -18 -7 -50 2 -41 0 -51 -14 -56 -15 -4 -16 -9 -7
-25 8 -16 7 -23 -4 -32 -8 -7 -17 -26 -19 -43 -4 -27 -1 -31 16 -27 21 4 21 4
2 -11 -25 -20 -33 -20 -52 -1 -12 12 -12 15 -2 15 9 0 9 3 2 8 -6 4 -10 31 -9
62 2 30 -2 58 -7 61 -6 4 4 11 21 17 18 7 29 7 26 2 -4 -6 1 -10 10 -10 27 0
11 25 -18 28 -28 3 -63 52 -49 67 4 5 0 6 -8 3 -18 -7 -25 27 -9 38 6 4 6 11
-2 20 -14 17 -83 18 -101 2 -7 -7 -24 -13 -38 -13 -24 0 -25 1 -22 62 3 41 0
63 -7 63 -6 0 -11 -13 -11 -30 0 -31 -38 -120 -52 -120 -13 0 -9 28 5 33 7 3
5 6 -5 6 -10 1 -18 -6 -18 -14 0 -7 -8 -19 -17 -24 -17 -10 -17 -10 2 -11 13
0 16 -3 9 -10 -12 -12 -76 -2 -69 10 5 9 -18 20 -41 20 -8 0 -14 -7 -14 -15 0
-12 -12 -14 -61 -10 -33 2 -69 7 -79 10 -13 4 -22 -1 -29 -14 -14 -26 -14 -31
4 -31 8 0 15 -5 15 -11 0 -15 -51 -2 -65 15 -6 7 -25 17 -42 20 -40 9 -50 21
-63 81 -13 58 -17 66 -33 59 -7 -2 -13 -32 -15 -79 l-3 -75 48 -1 48 -1 -50
-9 c-64 -11 -110 -6 -111 12 0 8 -4 25 -8 37 -4 13 -10 34 -11 45 -7 42 -11
56 -18 63 -4 4 -7 0 -7 -9 0 -9 -7 -17 -16 -17 -12 0 -15 7 -11 27 5 26 4 26
-9 9 -15 -21 -3 -46 22 -46 8 0 14 -4 14 -10 0 -5 -9 -10 -21 -10 -11 0 -18
-4 -15 -9 5 -7 -15 -21 -30 -21 -2 0 -4 19 -4 42 0 37 -2 40 -13 24 -7 -9 -17
-17 -22 -16 -20 4 -34 0 -50 -16 -9 -9 -17 -15 -19 -13 -2 2 -9 31 -17 63 -8
33 -20 62 -28 64 -10 3 -12 0 -8 -12 6 -16 -14 -21 -70 -16 -13 1 -23 0 -24
-2 0 -2 -3 -23 -6 -48 -6 -54 -16 -61 -65 -53 -41 6 -55 -12 -15 -20 l22 -4
-22 -2 c-21 -1 -22 -5 -21 -107 0 -58 -3 -108 -6 -111 -3 -4 -6 1 -6 9 0 11
-7 14 -25 10 -17 -3 -25 0 -25 9 -1 10 -5 9 -14 -4 -12 -15 -14 -16 -20 -2 -3
8 -16 15 -28 16 -23 0 -23 0 2 11 l25 11 -25 7 -25 8 24 8 23 7 -23 13 -24 13
23 1 c35 0 26 20 -10 21 -28 2 -29 2 -8 6 44 8 47 23 5 24 l-40 1 33 8 c39 9
53 20 26 20 -19 1 -19 1 0 15 11 8 18 15 15 16 -39 7 -119 7 -124 -1 -6 -9 8
-14 28 -11 4 0 7 -3 7 -8 0 -6 -22 -10 -49 -9 l-49 0 14 26 c19 37 17 54 -9
79 -23 22 -24 22 -40 2 -10 -11 -18 -31 -19 -44 -2 -19 -8 -25 -26 -25 -21 0
-22 -2 -12 -15 9 -10 9 -15 1 -15 -17 0 -13 -60 4 -66 8 -4 12 -10 9 -16 -9
-14 -10 -118 -2 -118 5 0 8 -7 8 -15 0 -8 -4 -15 -10 -15 -6 0 -10 -27 -10
-61 0 -57 -1 -60 -22 -57 -14 2 -25 13 -29 28 -4 15 -7 -10 -8 -61 -1 -51 -6
-90 -13 -97 -9 -9 -5 -12 19 -12 17 0 34 -6 36 -12 2 -7 3 -2 2 12 -1 14 0 46
4 72 5 39 9 46 21 38 12 -8 15 -40 17 -177 2 -163 1 -168 -20 -180 -31 -17
-39 -16 -32 6 3 11 2 22 -3 25 -5 3 -8 38 -6 78 1 40 -3 82 -9 93 -10 19 -10
18 -19 -4 -5 -15 -13 -21 -23 -17 -9 3 -15 -1 -15 -10 0 -10 6 -14 15 -10 12
4 15 -4 15 -44 0 -33 -4 -50 -12 -50 -9 0 -10 -3 -2 -8 16 -10 13 -41 -3 -35
-7 3 -13 0 -13 -6 0 -6 7 -11 15 -11 21 0 19 -16 -2 -25 -17 -6 -17 -7 1 -20
17 -13 17 -15 2 -30 -9 -10 -23 -14 -31 -11 -8 3 -15 0 -15 -5 0 -7 11 -9 26
-6 24 4 26 2 20 -24 -3 -16 -1 -31 6 -35 7 -4 5 -10 -6 -16 -14 -8 -14 -11 -1
-32 15 -22 15 -102 1 -125 -15 -23 7 -41 50 -41 l44 0 0 50 c0 38 -4 50 -15
50 -12 0 -15 19 -15 113 0 100 2 114 20 130 11 9 22 17 25 17 3 0 5 -56 5
-125 0 -119 1 -125 25 -149 14 -14 25 -32 25 -42 0 -16 -49 -68 -73 -77 -7 -3
-5 -6 6 -6 9 -1 17 -7 18 -13 0 -7 3 -72 5 -145 4 -128 4 -131 -16 -126 -13 4
-29 -3 -47 -21 l-26 -26 41 0 c41 0 63 13 40 24 -7 3 -4 4 8 1 15 -4 24 2 34
21 10 18 11 27 3 32 -11 7 -10 143 1 161 3 5 0 12 -6 14 -10 4 -10 6 0 6 7 1
12 14 12 31 0 17 5 30 11 30 6 0 9 -6 6 -13 -3 -8 -1 -20 4 -28 6 -11 11 -11
21 -1 6 6 14 12 18 12 3 0 5 -45 5 -100 0 -79 -3 -103 -15 -110 -10 -7 -11
-10 -2 -10 8 0 12 -17 12 -49 0 -54 8 -61 65 -61 19 0 36 -4 39 -8 2 -4 -30
-46 -74 -92 -55 -59 -83 -81 -94 -77 -9 4 -16 14 -16 22 0 12 -6 15 -22 9 -22
-7 -22 -6 -5 20 10 14 13 26 7 26 -5 0 -10 13 -10 30 0 25 6 32 35 44 22 9 35
22 35 33 0 10 -4 14 -8 8 -4 -5 -23 -11 -42 -12 -19 -2 -40 -9 -46 -18 -16
-22 -34 -18 -34 8 -1 21 -1 21 -11 3 -12 -19 1 -36 29 -36 8 0 11 -11 10 -31
-3 -34 -18 -51 -18 -20 0 27 -16 27 -30 1 -10 -19 -12 -19 -26 -5 -14 14 -14
18 0 39 14 22 14 25 0 30 -9 3 -12 11 -8 18 5 7 9 44 11 83 4 98 4 116 -2 126
-7 10 -77 -40 -150 -105 -54 -49 -85 -59 -85 -26 0 11 6 20 14 20 7 0 19 7 26
15 11 13 8 15 -14 15 -18 0 -26 5 -27 18 0 14 -2 14 -9 -3 -7 -19 -9 -18 -19
9 -6 15 -12 39 -13 51 -4 40 -46 7 -66 -50 l-10 -30 1 37 c0 24 -7 46 -18 58
-17 18 -17 20 -2 14 18 -7 24 11 7 21 -6 4 -8 11 -5 16 4 5 -1 9 -9 9 -10 0
-16 9 -16 25 0 14 -5 25 -11 25 -6 0 -9 -9 -6 -19 6 -26 -40 -72 -52 -52 -7
11 -11 10 -19 -5 -13 -26 -26 -76 -23 -91 1 -7 -3 -13 -9 -13 -5 0 -10 -8 -10
-17 0 -10 -4 -24 -9 -32 -5 -8 -8 13 -6 52 1 37 -2 72 -6 79 -4 7 -4 17 1 23
11 13 1 57 -11 49 -5 -3 -9 -1 -9 4 0 6 8 13 18 17 16 6 16 8 -3 21 -18 14
-21 13 -27 -8 -3 -13 -6 27 -5 87 0 74 2 94 6 61 l6 -50 28 26 c16 15 25 32
21 41 -9 23 33 48 63 36 33 -12 106 -12 98 1 -3 6 -24 10 -46 10 -37 0 -39 2
-39 30 0 17 5 30 11 30 5 0 7 5 4 10 -4 6 8 10 30 10 41 0 78 16 70 31 -4 5 3
9 14 9 12 0 21 -4 21 -10 0 -5 -5 -10 -11 -10 -5 0 -7 -5 -4 -10 7 -11 94 -14
119 -4 22 8 20 34 -1 35 -11 0 -13 3 -5 6 6 2 12 12 12 20 0 10 -6 13 -16 9
-8 -3 -12 -2 -9 4 3 6 1 10 -4 10 -6 0 -11 5 -11 10 0 6 9 10 20 10 23 0 27
15 6 23 -8 3 -26 -5 -40 -18 -14 -13 -26 -22 -26 -19 0 3 -9 0 -20 -6 -19 -10
-20 -8 -20 51 0 50 -3 60 -15 55 -8 -3 -15 0 -16 7 0 7 0 155 1 330 1 312 1
319 -19 324 -18 4 -19 8 -9 27 10 18 12 173 5 284 -4 47 -22 12 -21 -39 2 -37
-1 -48 -6 -34 -8 19 -9 19 -9 -3 -1 -13 5 -29 12 -37 17 -16 10 -85 -8 -85
-19 0 -24 25 -22 108 2 39 -1 72 -5 72 -4 0 -8 -8 -9 -17 -3 -130 -18 -286
-27 -295 -9 -9 -12 -8 -12 5 0 9 -6 17 -13 17 -9 0 -11 24 -5 103 6 105 1 187
-12 187 -4 0 -10 9 -13 20 -3 11 -11 20 -17 20 -7 0 -10 -7 -6 -16 4 -11 -1
-18 -15 -21 -11 -3 -18 -11 -15 -18 2 -7 -4 -15 -15 -18 -16 -4 -19 0 -19 33
0 32 -4 38 -25 42 -22 5 -25 2 -26 -26 l-1 -31 -8 30 c-6 23 -8 15 -9 -37 0
-38 -5 -68 -10 -68 -5 0 -17 -7 -25 -16 -10 -9 -16 -11 -16 -4 0 7 -6 6 -15
-4 -10 -10 -15 -35 -15 -82 0 -37 -3 -64 -6 -61 -4 4 -15 -3 -25 -15 l-19 -21
0 27 c0 23 -3 26 -20 21 -11 -4 -20 -2 -20 4 0 6 9 11 20 11 18 0 20 7 20 80
0 47 -4 80 -10 80 -5 0 -10 -13 -10 -29 0 -35 -15 -50 -17 -18 -1 12 -7 23
-13 25 -5 2 -10 15 -10 29 0 18 -5 24 -17 21 -15 -3 -19 -18 -24 -88 -5 -80
-5 -81 -8 -25 -3 73 -10 138 -17 144 -2 2 -4 -6 -4 -18 0 -12 -4 -20 -9 -17
-5 3 -12 -33 -16 -80 -4 -47 -9 -83 -11 -81 -3 3 -9 33 -13 68 l-8 64 -2 -55
c-2 -75 -12 -131 -22 -124 -5 3 -9 22 -9 43 0 22 -6 44 -15 51 -8 7 -15 19
-15 26 0 8 -4 14 -10 14 -5 0 -10 -17 -10 -37 0 -61 -12 -143 -21 -143 -4 0
-6 21 -3 47 3 26 0 59 -6 73 -6 15 -12 39 -13 55 -4 46 -27 43 -27 -4 0 -22
-4 -43 -10 -46 -6 -4 -10 15 -10 50 0 64 -28 123 -41 89 -4 -11 -8 -52 -8 -91
-1 -40 -4 -73 -9 -73 -4 0 -6 20 -4 45 4 43 3 45 -22 45 -33 0 -34 18 -1 30
14 5 25 12 25 15 0 4 -5 3 -12 -1 -6 -4 -17 1 -25 12 -21 28 -35 1 -30 -58 3
-34 0 -48 -8 -48 -7 0 -15 7 -19 15 -3 8 -12 15 -21 15 -8 0 -15 7 -15 15 0 8
-4 15 -10 15 -5 0 -7 13 -4 30 5 25 3 31 -17 39 -13 4 -30 6 -36 4 -15 -6 -17
-33 -3 -33 6 0 10 -4 10 -10 0 -18 -16 -10 -30 14 -17 32 -36 39 -54 21 -8 -8
-19 -15 -25 -15 -17 0 -34 -42 -33 -78 1 -19 -3 -30 -8 -27 -6 4 -8 11 -5 16
4 5 -1 9 -9 9 -11 0 -16 9 -16 30 0 17 -4 30 -9 30 -5 0 -12 11 -15 25 -4 14
-11 23 -15 20 -9 -5 -25 80 -19 106 2 9 -5 14 -18 14 -11 0 -29 7 -39 15 -11
9 -16 10 -11 3 4 -7 4 -18 0 -24 -4 -8 -12 -3 -20 12 -13 24 -13 24 -14 -11
-1 -38 -1 -39 -32 40 -9 23 -11 23 -22 7 -22 -29 -41 -19 -59 31 -9 26 -18 58
-20 72 -2 14 -5 3 -6 -25 -2 -84 -21 -91 -21 -7 0 74 -19 104 -21 35 l-2 -38
-6 40 c-5 27 -10 -14 -15 -125 -9 -169 -24 -256 -26 -150 -1 30 -5 73 -9 95
-8 37 -9 35 -10 -28 -1 -46 -5 -67 -12 -65 -8 3 -11 39 -10 108 0 58 -3 121
-8 140 l-8 35 -6 -45 c-4 -25 -8 -72 -10 -105 -2 -54 -4 -60 -24 -63 -17 -3
-23 2 -23 16 0 23 -25 46 -40 37 -5 -3 -10 -14 -10 -24 0 -22 -39 -35 -46 -16
-3 7 -7 22 -9 32 -2 10 -4 19 -4 21 -1 1 -12 -5 -26 -14 -17 -11 -25 -12 -25
-4 0 7 -11 10 -27 8 -22 -2 -28 2 -33 22 -5 20 -8 22 -15 10 -5 -8 -8 -27 -6
-42 1 -17 -2 -26 -11 -24 -25 3 -36 16 -31 35 4 16 -3 22 -34 30 -50 14 -56
14 -49 -4 7 -19 -4 -19 -31 0 -19 13 -22 13 -27 0 -10 -26 -25 -16 -28 18 -3
32 -3 32 -63 34 -89 4 -137 3 -147 -3 -12 -7 -10 -34 3 -34 6 0 17 -7 26 -15
14 -14 13 -15 -13 -9 -16 4 -35 12 -43 18 -11 8 -15 8 -18 -1 -3 -7 -11 -13
-19 -13 -11 0 -12 -4 -4 -19 7 -14 7 -22 -1 -27 -15 -9 -29 14 -29 51 -1 28
-2 29 -10 8 -5 -13 -14 -23 -20 -23 -6 0 -8 5 -5 10 3 6 2 10 -4 10 -14 0 -52
42 -48 54 2 5 -5 18 -16 29 -15 15 -21 16 -27 7 -11 -18 -44 -4 -36 16 9 23
-23 65 -48 63 -12 -1 -29 2 -39 6 -10 4 -21 5 -24 2 -3 -4 -14 -2 -24 4 -15 8
-24 5 -43 -16 l-23 -25 -12 29 c-9 21 -18 27 -31 24 -23 -6 -31 -41 -33 -139
-2 -55 -5 -69 -19 -72 -19 -4 -33 14 -18 23 5 3 10 1 10 -4 0 -6 5 -11 10 -11
16 0 12 22 -7 36 -13 9 -19 31 -23 76 -4 47 -9 63 -20 63 -8 0 -14 -6 -13 -12
5 -23 -19 -113 -28 -107 -5 3 -9 29 -9 57 0 66 -10 128 -20 122 -4 -3 -7 3 -6
12 0 9 -5 18 -12 20 -10 4 -12 -137 -10 -745z m593 448 c3 -5 -1 -10 -10 -10
-9 0 -13 5 -10 10 3 6 8 10 10 10 2 0 7 -4 10 -10z m2315 -140 c0 -5 -2 -10
-4 -10 -3 0 -8 5 -11 10 -3 6 -1 10 4 10 6 0 11 -4 11 -10z m-2060 -186 c0
-19 -4 -33 -8 -30 -8 5 -4 66 4 66 2 0 4 -16 4 -36z m6220 -18 c-7 -7 -10 1
-9 25 0 32 1 33 10 10 6 -16 6 -28 -1 -35z m-5255 -49 c0 -41 4 -67 11 -67 6
0 9 12 6 30 -2 16 -1 42 3 57 l8 28 8 -30 c10 -34 1 -152 -13 -175 -8 -13 -9
-13 -5 0 4 18 -11 35 -41 44 -12 4 -22 12 -22 17 0 5 -7 9 -16 9 -13 0 -14 3
-4 14 6 8 18 12 26 9 10 -4 14 3 14 26 0 18 -5 31 -12 32 -10 0 -10 2 -1 5 7
3 9 18 6 41 -5 31 -4 35 13 31 16 -3 19 -13 19 -71z m5314 52 c-16 -10 -23 -4
-14 10 3 6 11 8 17 5 6 -4 5 -9 -3 -15z m66 11 c3 -5 1 -10 -4 -10 -6 0 -11 5
-11 10 0 6 2 10 4 10 3 0 8 -4 11 -10z m-3425 -20 c0 -5 -5 -10 -11 -10 -5 0
-7 5 -4 10 3 6 8 10 11 10 2 0 4 -4 4 -10z m250 -9 c0 -32 -11 -50 -27 -44
-12 5 -12 7 -1 14 10 7 10 9 1 9 -7 0 -13 9 -13 20 0 13 7 20 20 20 13 0 20
-7 20 -19z m3810 4 c0 -8 -7 -15 -15 -15 -9 0 -12 6 -9 15 4 8 10 15 15 15 5
0 9 -7 9 -15z m-1523 -11 c-3 -3 -12 -4 -19 -1 -8 3 -5 6 6 6 11 1 17 -2 13
-5z m893 -4 c0 -5 -5 -10 -11 -10 -5 0 -7 5 -4 10 3 6 8 10 11 10 2 0 4 -4 4
-10z m-3477 -7 c4 -3 2 -12 -4 -20 -9 -10 -8 -13 4 -13 18 0 33 -33 18 -38 -7
-2 -11 -44 -11 -108 0 -76 -3 -104 -12 -105 -10 0 -10 -2 0 -6 6 -2 12 -20 12
-39 0 -21 -4 -33 -10 -29 -5 3 -10 -1 -10 -10 0 -10 5 -13 12 -9 8 5 9 0 4
-17 -5 -13 -9 -33 -10 -44 -3 -28 -23 -61 -32 -53 -3 4 -8 45 -9 90 -2 46 -4
93 -4 106 -1 13 -5 21 -10 18 -5 -3 -8 6 -8 19 0 14 4 25 9 25 6 0 6 6 -1 14
-9 11 -9 15 1 20 11 5 11 7 0 12 -10 5 -10 9 -1 20 9 11 9 14 0 14 -7 0 -9 5
-5 12 12 18 13 51 3 64 -5 6 -3 19 6 30 8 10 15 27 15 37 0 17 30 24 43 10z
m1403 -24 c-5 -25 -3 -30 9 -25 8 3 15 1 15 -4 0 -6 -7 -10 -15 -10 -8 0 -15
-5 -15 -11 0 -6 7 -9 15 -5 9 3 15 0 15 -9 0 -9 -6 -12 -15 -9 -8 4 -15 1 -15
-5 0 -6 7 -11 15 -11 8 0 15 -4 15 -10 0 -5 -4 -10 -9 -10 -5 0 -16 -3 -24 -6
-12 -4 -15 2 -13 30 2 20 0 36 -3 36 -5 0 -7 50 -3 73 1 4 9 7 18 7 13 0 15
-7 10 -31z m-826 1 c0 -5 12 -10 28 -10 l27 -1 -28 -12 c-16 -7 -28 -16 -27
-22 1 -5 -3 -11 -9 -13 -6 -2 -11 3 -11 12 0 9 -8 17 -17 17 -17 1 -17 2 0 6
9 2 17 11 17 19 0 8 5 14 10 14 6 0 10 -4 10 -10z m3540 -50 c0 -36 -4 -60
-11 -60 -5 0 -7 5 -4 11 4 6 -3 13 -16 17 l-24 6 25 7 25 7 -25 2 -25 2 25 8
25 8 -24 1 c-24 1 -24 1 -5 16 11 8 14 15 7 15 -22 0 -14 20 7 20 18 0 20 -7
20 -60z m-2900 40 c0 -5 -4 -10 -10 -10 -5 0 -10 5 -10 10 0 6 5 10 10 10 6 0
10 -4 10 -10z m-2038 -24 c3 -15 0 -27 -8 -30 -10 -4 -14 3 -14 24 0 36 16 40
22 6z m6821 17 c-7 -2 -19 -2 -25 0 -7 3 -2 5 12 5 14 0 19 -2 13 -5z m-7943
-13 c0 -5 -7 -7 -15 -4 -8 4 -15 8 -15 10 0 2 7 4 15 4 8 0 15 -4 15 -10z
m1237 -30 c-3 -22 -1 -43 4 -46 6 -3 7 -15 3 -27 -9 -28 -9 -361 0 -376 4 -6
2 -11 -3 -11 -6 0 -11 -4 -11 -10 0 -5 8 -7 18 -4 10 4 13 3 6 -3 -17 -13 -25
-43 -12 -43 9 0 9 -3 0 -12 -6 -6 -14 -10 -16 -7 -4 4 -10 516 -7 567 1 6 6
12 12 12 8 0 10 -14 6 -40z m6235 16 c-5 -27 7 -68 17 -61 12 7 19 -15 13 -37
-3 -13 -48 -38 -68 -38 -2 0 -4 14 -4 30 0 20 5 30 15 30 25 0 20 66 -5 73
-31 8 -24 29 8 25 20 -2 26 -8 24 -22z m-1834 -37 c-3 -33 -10 -54 -24 -64
-18 -15 -18 -15 0 -13 10 2 21 -3 24 -11 3 -10 0 -12 -12 -8 -23 9 -46 -2 -39
-19 3 -8 1 -14 -5 -14 -6 0 -19 -3 -29 -7 -16 -6 -17 -5 -4 11 13 15 13 19 0
27 -13 8 -5 14 15 10 5 -1 3 5 -4 14 -8 9 -22 14 -32 12 -10 -3 -18 -1 -18 5
0 5 -5 6 -12 2 -6 -4 -8 -3 -5 3 3 5 19 9 36 8 21 -1 28 2 24 12 -3 8 -13 13
-22 12 -9 -1 -27 -1 -41 0 -22 1 -23 3 -8 12 10 5 24 9 30 8 25 -3 38 1 38 12
0 6 -8 9 -19 6 -22 -5 -58 12 -43 22 6 3 42 7 82 7 l71 1 -3 -48z m46 36 c-4
-8 -10 -15 -15 -15 -5 0 -9 7 -9 15 0 8 7 15 15 15 9 0 12 -6 9 -15z m-1717
-1 c-3 -3 -12 -4 -19 -1 -8 3 -5 6 6 6 11 1 17 -2 13 -5z m163 -14 c0 -5 -4
-10 -10 -10 -5 0 -10 5 -10 10 0 6 5 10 10 10 6 0 10 -4 10 -10z m2377 4 c-3
-3 -12 -4 -19 -1 -8 3 -5 6 6 6 11 1 17 -2 13 -5z m1063 2 c0 -11 -19 -15 -25
-6 -3 5 1 10 9 10 9 0 16 -2 16 -4z m75 -6 c7 -12 -22 -12 -50 0 -17 7 -15 9
12 9 17 1 35 -3 38 -9z m-6709 -15 c-14 -10 -42 -14 -90 -13 l-71 1 72 6 c39
3 75 9 79 14 4 4 12 7 18 7 6 0 2 -7 -8 -15z m2689 -5 c3 -5 -3 -10 -15 -10
-12 0 -18 5 -15 10 3 6 10 10 15 10 5 0 12 -4 15 -10z m1195 -16 c0 -8 -5 -12
-10 -9 -6 4 -8 11 -5 16 9 14 15 11 15 -7z m855 6 c3 -5 1 -10 -4 -10 -6 0
-11 5 -11 10 0 6 2 10 4 10 3 0 8 -4 11 -10z m-1056 -50 c0 -44 -2 -50 -19
-50 -11 0 -20 5 -20 10 0 6 6 10 13 10 9 0 8 3 -2 9 -9 6 -10 11 -2 15 6 4 9
12 5 17 -5 8 12 39 21 39 1 0 3 -22 4 -50z m-704 30 c3 -5 -3 -10 -14 -10 -12
0 -21 5 -21 10 0 6 6 10 14 10 8 0 18 -4 21 -10z m237 -19 c3 -23 -1 -32 -17
-39 -19 -9 -21 -7 -21 29 0 30 3 39 17 39 11 0 18 -10 21 -29z m-3232 10 c0
-5 -7 -11 -15 -15 -15 -5 -20 5 -8 17 9 10 23 9 23 -2z m2942 -41 c-6 -41 -12
-38 -12 6 0 19 4 33 8 30 5 -3 7 -19 4 -36z m951 33 c-7 -2 -21 -2 -30 0 -10
3 -4 5 12 5 17 0 24 -2 18 -5z m-1443 -7 c0 -2 -9 -6 -20 -9 -11 -3 -20 -1
-20 4 0 5 9 9 20 9 11 0 20 -2 20 -4z m536 -4 c9 -5 8 -10 -1 -19 -10 -9 -14
-8 -18 8 -5 20 0 24 19 11z m46 -37 c-2 -19 -6 -35 -8 -35 -2 0 -4 16 -4 35 0
19 4 35 8 35 4 0 6 -16 4 -35z m-585 9 c-3 -3 -12 -4 -19 -1 -8 3 -5 6 6 6 11
1 17 -2 13 -5z m2163 -15 c0 -5 -4 -9 -10 -9 -5 0 -10 7 -10 16 0 8 5 12 10 9
6 -3 10 -10 10 -16z m-3490 -1 c0 -9 3 -9 12 0 7 7 25 12 40 12 l28 0 -4 -146
c-3 -80 -7 -149 -10 -152 -3 -3 -6 9 -6 26 0 18 -4 32 -10 32 -5 0 -7 7 -4 15
4 10 0 15 -15 15 -18 0 -21 6 -21 40 0 22 -3 40 -8 40 -4 0 -7 -25 -6 -55 1
-31 -3 -58 -7 -61 -5 -3 -9 4 -9 15 0 12 -6 21 -14 21 -9 0 -14 15 -15 51 l-1
52 50 -6 c29 -4 50 -2 50 3 0 8 -45 13 -76 9 -13 -2 -24 27 -24 64 0 33 3 37
25 37 14 0 25 -5 25 -12z m1950 -8 c0 -11 -4 -20 -9 -20 -7 0 -8 17 -2 38 4
10 11 -2 11 -18z m1924 -15 c3 -8 1 -15 -3 -15 -5 0 -11 7 -15 15 -3 8 -1 15
3 15 5 0 11 -7 15 -15z m121 5 c3 -5 1 -10 -4 -10 -6 0 -11 5 -11 10 0 6 2 10
4 10 3 0 8 -4 11 -10z m-2672 -7 c-7 -2 -19 -2 -25 0 -7 3 -2 5 12 5 14 0 19
-2 13 -5z m2257 -13 c0 -5 -5 -10 -11 -10 -5 0 -7 5 -4 10 3 6 8 10 11 10 2 0
4 -4 4 -10z m-1717 -13 c3 -8 1 -20 -4 -28 -6 -10 -9 -7 -9 14 0 29 5 35 13
14z m1682 3 c-3 -5 -10 -10 -16 -10 -5 0 -9 5 -9 10 0 6 7 10 16 10 8 0 12 -4
9 -10z m-4908 -6 c-3 -3 -12 -4 -19 -1 -8 3 -5 6 6 6 11 1 17 -2 13 -5z m3970
-36 c-3 -7 -5 -2 -5 12 0 14 2 19 5 13 2 -7 2 -19 0 -25z m-1048 5 c3 -2 -1
-9 -7 -15 -9 -9 -12 -9 -12 0 0 7 -7 12 -15 12 -8 0 -12 -6 -9 -14 3 -8 1 -17
-4 -20 -10 -6 -23 40 -14 49 5 5 53 -4 61 -12z m-3639 -9 c0 -2 -12 -4 -27 -4
-21 0 -24 3 -14 9 13 8 41 5 41 -5z m5667 -6 c-3 -8 -6 -5 -6 6 -1 11 2 17 5
13 3 -3 4 -12 1 -19z m40 0 c-3 -8 -6 -5 -6 6 -1 11 2 17 5 13 3 -3 4 -12 1
-19z m-990 -50 c-3 -7 -5 -2 -5 12 0 14 2 19 5 13 2 -7 2 -19 0 -25z m-5390
-10 c-3 -8 -6 -5 -6 6 -1 11 2 17 5 13 3 -3 4 -12 1 -19z m2850 0 c-3 -8 -6
-5 -6 6 -1 11 2 17 5 13 3 -3 4 -12 1 -19z m-2172 2 c3 -5 1 -10 -4 -10 -6 0
-11 5 -11 10 0 6 2 10 4 10 3 0 8 -4 11 -10z m1225 -20 c0 -5 -2 -10 -4 -10
-3 0 -8 5 -11 10 -3 6 -1 10 4 10 6 0 11 -4 11 -10z m3550 -5 c0 -16 -35 -21
-44 -6 -8 12 4 21 26 21 10 0 18 -7 18 -15z m-4720 -15 c7 -14 7 -20 0 -20 -5
0 -10 6 -10 14 0 8 -8 17 -17 19 -17 4 -17 5 -1 6 10 0 22 -8 28 -19z m2117
-47 c-2 -16 -4 -5 -4 22 0 28 2 40 4 28 2 -13 2 -35 0 -50z m-2047 42 c9 -10
9 -15 1 -15 -6 0 -11 -9 -11 -20 0 -17 -7 -20 -40 -20 -22 0 -40 -4 -40 -10 0
-5 10 -10 23 -10 42 0 67 -12 67 -31 0 -11 -7 -19 -17 -20 -17 -1 -17 -2 0 -6
10 -3 14 -9 10 -16 -4 -7 -8 -14 -8 -17 -1 -3 -11 -24 -23 -47 -27 -52 -28
-62 -2 -32 19 23 20 24 35 5 27 -36 0 -95 -44 -97 -17 -1 -20 -3 -8 -6 20 -5
22 -14 6 -30 -7 -7 -3 -10 16 -10 14 0 29 -4 33 -7 8 -9 6 -799 -3 -826 -3
-10 -18 -20 -35 -22 -28 -4 -30 -2 -30 25 0 41 -11 28 -12 -14 -1 -19 -7 -40
-15 -47 -9 -9 -13 -43 -14 -105 l-2 -92 -7 75 c-9 86 -14 909 -6 917 3 3 2 11
-1 17 -4 6 -6 41 -4 79 2 50 -1 67 -10 67 -10 0 -10 3 -1 12 7 7 12 21 12 33
0 12 -5 26 -12 33 -9 9 -9 15 0 24 17 17 15 55 -4 62 -12 5 -13 8 -2 20 7 8
16 12 20 10 3 -2 4 5 1 15 -8 29 33 79 63 75 24 -2 51 26 37 40 -3 3 -2 6 4 6
6 0 16 -7 23 -15z m1980 -19 c0 -3 -4 -8 -10 -11 -5 -3 -10 -1 -10 4 0 6 5 11
10 11 6 0 10 -2 10 -4z m-43 -48 c-3 -8 -6 -5 -6 6 -1 11 2 17 5 13 3 -3 4
-12 1 -19z m-2579 5 c-10 -2 -26 -2 -35 0 -10 3 -2 5 17 5 19 0 27 -2 18 -5z
m-231 -25 c-3 -8 -6 -5 -6 6 -1 11 2 17 5 13 3 -3 4 -12 1 -19z m53 12 c0 -5
-5 -10 -11 -10 -5 0 -7 5 -4 10 3 6 8 10 11 10 2 0 4 -4 4 -10z m266 -10 c8 0
14 -4 14 -10 0 -11 -33 -14 -43 -4 -3 3 -3 13 1 22 4 10 7 12 10 4 2 -7 10
-12 18 -12z m3638 -2 c-3 -13 -7 -24 -9 -26 -1 -1 -28 4 -61 12 -47 11 -52 15
-26 15 17 1 32 6 32 11 0 6 16 10 36 10 32 0 35 -2 28 -22z m93 2 c8 0 11 -4
8 -10 -3 -5 -23 -10 -44 -10 -28 0 -38 4 -38 16 0 12 7 14 30 10 16 -3 36 -6
44 -6z m-4289 -7 c-10 -2 -26 -2 -35 0 -10 3 -2 5 17 5 19 0 27 -2 18 -5z
m-93 -13 c-3 -5 -10 -10 -16 -10 -5 0 -9 5 -9 10 0 6 7 10 16 10 8 0 12 -4 9
-10z m414 -193 c-1 -167 -13 -432 -17 -379 -1 12 -7 22 -12 22 -6 0 -17 15
-25 33 -10 23 -14 27 -15 12 0 -17 -2 -17 -10 -5 -8 13 -10 12 -11 -5 -1 -14
-4 -10 -9 10 -4 17 -8 130 -9 251 -1 189 1 223 14 228 10 4 15 -1 15 -14 0
-11 6 -20 13 -20 13 0 47 20 34 20 -4 0 -3 9 3 20 23 44 30 4 29 -173z m2643
156 c10 -5 7 -92 -3 -99 -5 -3 -10 -20 -11 -37 -1 -21 -4 -12 -8 23 -4 32 -7
43 -9 25 -1 -23 -3 -27 -11 -15 -7 11 -10 7 -11 -20 -1 -27 -3 -23 -9 20 -5
30 -8 70 -9 88 -1 33 0 33 32 27 17 -4 35 -9 39 -12z m-3552 -2 c0 -14 -23
-20 -54 -14 -20 4 -24 8 -14 14 17 11 68 11 68 0z m3687 -5 c6 -6 -11 -46 -19
-46 -5 0 -7 10 -4 23 3 12 3 16 0 10 -7 -15 -34 -18 -34 -4 0 5 5 12 10 14 6
3 5 4 -2 3 -7 -1 -15 -13 -19 -27 -6 -21 -7 -20 -8 10 -1 33 -1 33 37 26 20
-4 38 -8 39 -9z m808 4 c18 -8 17 -9 -7 -9 -16 -1 -28 4 -28 9 0 12 8 12 35 0z
m-776 -38 c0 -24 -1 -25 -9 -7 -12 28 -12 47 0 40 6 -3 10 -18 9 -33z m-2186
13 c-3 -9 -8 -14 -10 -11 -3 3 -2 9 2 15 9 16 15 13 8 -4z m1414 -44 c0 -11
-6 -17 -14 -14 -19 8 -16 -14 5 -26 15 -9 15 -10 1 -11 -13 0 -17 -9 -17 -35
0 -27 -8 -43 -36 -70 -20 -19 -41 -35 -48 -35 -16 0 -37 -32 -38 -57 0 -37
-27 -16 -32 24 -3 26 1 42 14 55 19 19 24 33 8 23 -5 -3 -10 3 -10 15 0 12 -9
24 -21 29 l-22 8 24 22 24 22 3 -24 c3 -22 5 -24 27 -13 14 6 25 20 26 31 1
19 1 19 7 -1 6 -16 12 -19 27 -13 17 6 17 8 3 8 -25 1 -22 17 3 24 11 3 23 15
26 26 3 11 12 22 22 24 9 3 17 5 18 6 1 0 1 -8 0 -18z m4631 -8 c16 -16 15
-16 -8 -10 -14 4 -31 7 -37 7 -7 0 -13 5 -13 10 0 16 40 11 58 -7z m-2138 -3
c0 -5 -7 -7 -15 -4 -8 4 -15 8 -15 10 0 2 7 4 15 4 8 0 15 -4 15 -10z m-2718
-74 c-3 -41 -8 -56 -19 -56 -8 0 -11 5 -8 10 4 6 -9 11 -32 11 -33 2 -34 3 -9
6 39 6 56 25 56 63 0 17 3 29 8 27 4 -3 5 -30 4 -61z m2748 44 c0 -5 -4 -10
-10 -10 -5 0 -10 5 -10 10 0 6 5 10 10 10 6 0 10 -4 10 -10z m-2640 -4 c0 -3
-4 -8 -10 -11 -5 -3 -10 -1 -10 4 0 6 5 11 10 11 6 0 10 -2 10 -4z m2780 -39
c0 -5 -8 -6 -17 -2 -10 4 -29 10 -43 13 -22 5 -23 6 -5 12 22 8 65 -7 65 -23z
m2092 23 c10 0 16 -4 13 -10 -7 -12 -105 -14 -105 -2 0 17 16 23 44 18 16 -3
37 -6 48 -6z m-182 -40 c0 -5 -2 -10 -4 -10 -3 0 -8 5 -11 10 -3 6 -1 10 4 10
6 0 11 -4 11 -10z m-7660 -10 c0 -5 -5 -10 -11 -10 -5 0 -7 5 -4 10 3 6 8 10
11 10 2 0 4 -4 4 -10z m7780 -20 c0 -5 -4 -10 -10 -10 -5 0 -10 5 -10 10 0 6
5 10 10 10 6 0 10 -4 10 -10z m-4870 -10 c0 -5 -7 -10 -15 -10 -8 0 -15 -4
-15 -9 0 -5 -7 -11 -15 -15 -26 -10 -16 13 13 28 33 18 32 18 32 6z m165 -30
c-3 -5 -10 -10 -16 -10 -5 0 -9 5 -9 10 0 6 7 10 16 10 8 0 12 -4 9 -10z m522
-30 c0 -16 -4 -30 -8 -30 -11 0 -22 38 -14 50 12 19 22 10 22 -20z m1093 26
c0 -3 -4 -8 -10 -11 -5 -3 -10 -1 -10 4 0 6 5 11 10 11 6 0 10 -2 10 -4z m-45
-83 c-3 -41 -2 -51 4 -33 6 15 9 -48 8 -165 -1 -176 -1 -181 -7 -70 -3 66 -7
105 -8 86 -4 -60 -15 -24 -15 46 1 55 -1 60 -6 28 l-6 -40 -9 35 -10 35 -4
-35 c-2 -19 0 -36 5 -37 4 -2 7 -22 6 -45 -1 -24 -2 -61 -2 -82 -2 -82 -9 -26
-14 109 -3 77 -3 130 0 118 4 -23 23 -32 23 -12 0 5 5 7 10 4 6 -4 10 10 10
34 0 23 -5 41 -11 41 -5 0 -8 -3 -6 -7 3 -5 1 -17 -4 -28 -7 -19 -8 -19 -8 3
-1 12 -7 22 -13 23 -7 0 -2 5 12 10 14 6 28 17 33 25 14 24 16 16 12 -43z
m-40 37 c-3 -5 -10 -10 -16 -10 -5 0 -9 5 -9 10 0 6 7 10 16 10 8 0 12 -4 9
-10z m-32 -165 c3 -77 2 -149 -3 -160 -5 -12 -9 45 -9 144 -1 90 1 162 3 160
2 -2 6 -67 9 -144z m-1876 103 c-3 -8 -6 -5 -6 6 -1 11 2 17 5 13 3 -3 4 -12
1 -19z m90 0 c-3 -8 -6 -5 -6 6 -1 11 2 17 5 13 3 -3 4 -12 1 -19z m127 -3
c-4 -8 -10 -15 -15 -15 -5 0 -9 7 -9 15 0 8 7 15 15 15 9 0 12 -6 9 -15z
m1763 -32 c-3 -10 -5 -4 -5 12 0 17 2 24 5 18 2 -7 2 -21 0 -30z m3080 0 c-3
-10 -5 -4 -5 12 0 17 2 24 5 18 2 -7 2 -21 0 -30z m-4967 -53 c0 -5 -2 -10 -4
-10 -3 0 -8 5 -11 10 -3 6 -1 10 4 10 6 0 11 -4 11 -10z m17 -37 c-3 -10 -5
-2 -5 17 0 19 2 27 5 18 2 -10 2 -26 0 -35z m1870 10 c-3 -10 -5 -4 -5 12 0
17 2 24 5 18 2 -7 2 -21 0 -30z m-2702 17 c3 -5 1 -10 -4 -10 -6 0 -11 5 -11
10 0 6 2 10 4 10 3 0 8 -4 11 -10z m325 -16 c0 -8 -7 -14 -15 -14 -15 0 -21
21 -9 33 10 9 24 -2 24 -19z m399 -21 c-1 -28 -3 -31 -6 -13 -3 14 -10 31 -15
38 -8 9 -6 12 6 12 12 0 16 -9 15 -37z m-579 17 c-8 -5 -19 -10 -25 -10 -5 0
-3 5 5 10 8 5 20 10 25 10 6 0 3 -5 -5 -10z m2557 -72 c-3 -7 -5 -2 -5 12 0
14 2 19 5 13 2 -7 2 -19 0 -25z m-1837 -58 c0 -60 -5 -67 -42 -61 -5 0 -8 -6
-8 -14 0 -9 -6 -12 -15 -9 -10 4 -15 0 -15 -12 0 -16 -2 -17 -10 -4 -8 13 -10
13 -10 -2 0 -11 -5 -15 -15 -12 -8 4 -15 1 -15 -5 0 -6 -7 -8 -15 -5 -13 5
-13 9 -3 22 11 13 10 15 -5 9 -14 -5 -16 -2 -13 18 3 14 0 25 -5 25 -5 0 -4 9
3 20 7 11 16 20 20 20 5 0 8 -9 8 -20 0 -23 12 -25 43 -9 29 16 38 30 31 51
-3 11 4 22 23 32 15 8 31 15 36 16 4 0 7 -27 7 -60z m-850 36 c0 -8 -4 -17 -9
-21 -12 -7 -24 12 -16 25 9 15 25 12 25 -4z m-953 -48 c-2 -13 -4 -5 -4 17 -1
22 1 32 4 23 2 -10 2 -28 0 -40z m1284 23 c-21 -6 -24 -12 -25 -59 -1 -66 -18
-72 -29 -9 -9 59 2 77 47 76 28 -1 29 -2 7 -8z m2356 -38 c-3 -10 -5 -4 -5 12
0 17 2 24 5 18 2 -7 2 -21 0 -30z m-2523 -4 c-3 -5 -10 -7 -15 -4 -5 3 -6 -1
-3 -9 3 -9 1 -16 -5 -16 -14 0 -14 23 1 38 13 13 31 6 22 -9z m-997 -51 c-2
-13 -4 -5 -4 17 -1 22 1 32 4 23 2 -10 2 -28 0 -40z m-327 32 c0 -5 -8 -10
-17 -10 -15 0 -16 2 -3 10 19 12 20 12 20 0z m3807 -52 c-2 -13 -4 -3 -4 22 0
25 2 35 4 23 2 -13 2 -33 0 -45z m-2535 30 c-7 -7 -12 -8 -12 -2 0 14 12 26
19 19 2 -3 -1 -11 -7 -17z m-1582 8 c0 -11 -19 -15 -25 -6 -3 5 1 10 9 10 9 0
16 -2 16 -4z m1910 -11 c0 -3 -9 -15 -21 -28 -14 -17 -27 -23 -45 -19 l-25 4
33 24 c29 22 58 31 58 19z m-187 -25 c-3 -11 -9 -18 -13 -15 -5 3 -11 -1 -13
-7 -4 -9 -6 -8 -6 3 -1 15 17 39 30 39 4 0 5 -9 2 -20z m594 -22 c-3 -8 -6 -5
-6 6 -1 11 2 17 5 13 3 -3 4 -12 1 -19z m-17 -7 c0 -6 -4 -13 -10 -16 -5 -3
-10 1 -10 9 0 9 5 16 10 16 6 0 10 -4 10 -9z m-21 -63 c0 6 5 12 11 12 14 0 1
-27 -16 -34 -11 -4 -14 4 -13 37 l2 42 7 -35 c4 -19 8 -29 9 -22z m617 10
c-16 -22 -56 -53 -56 -43 0 19 34 61 51 62 17 2 18 0 5 -19z m-2254 -150 c-1
-295 -1 -308 -16 -308 -15 0 -32 82 -20 101 4 8 -1 9 -17 4 -23 -7 -23 -7 -8
11 11 12 18 43 21 87 3 58 2 67 -13 67 -12 0 -19 -10 -22 -32 -4 -30 -5 -31
-12 -10 -7 21 -25 31 -25 14 0 -4 -9 -8 -20 -9 -34 -3 -22 25 20 47 43 22 43
23 31 86 -7 37 -6 41 10 37 10 -3 28 2 40 11 13 8 25 14 27 11 2 -2 4 -55 4
-117z m-102 103 c0 -5 -9 -11 -20 -14 -20 -5 -26 3 -13 16 9 10 33 8 33 -2z
m1350 -40 c0 -38 -5 -55 -22 -73 -49 -50 -53 -50 -56 -2 -2 35 1 42 13 38 8
-4 15 -2 15 4 0 19 31 82 40 82 6 0 10 -22 10 -49z m787 43 c-3 -3 -12 -4 -19
-1 -8 3 -5 6 6 6 11 1 17 -2 13 -5z m-410 -26 c-3 -8 -6 -5 -6 6 -1 11 2 17 5
13 3 -3 4 -12 1 -19z m58 -2 c32 3 34 2 22 -16 -7 -13 -23 -20 -43 -20 -29 0
-31 2 -26 28 3 15 7 22 9 16 2 -6 19 -9 38 -8z m453 -30 c-51 -46 -61 -68 -28
-59 11 3 20 9 20 13 0 4 12 12 26 19 31 14 30 -6 -1 -23 -33 -19 -65 -58 -65
-80 0 -23 -17 -46 -33 -46 -5 0 -7 33 -4 75 6 82 16 98 76 127 57 27 59 21 9
-26z m100 24 c-7 -11 -18 -22 -25 -25 -9 -3 -8 4 3 20 19 29 40 34 22 5z
m-1078 -89 c0 -54 9 -61 83 -61 20 0 37 -4 37 -10 0 -5 -4 -10 -9 -10 -5 0 -7
-16 -4 -36 3 -25 1 -34 -6 -30 -6 4 -11 16 -11 27 0 10 -4 19 -10 19 -5 0 -10
-16 -10 -35 0 -39 -16 -48 -23 -12 -4 19 -4 18 -6 -5 0 -16 -9 -32 -21 -38
-12 -6 -20 -21 -20 -35 0 -14 -3 -25 -6 -25 -13 0 -35 32 -31 44 3 8 -1 17 -9
20 -8 3 -14 13 -15 23 -1 12 -3 9 -8 -7 -6 -22 -13 -25 -55 -28 -32 -2 -46 0
-41 7 3 6 3 11 -2 11 -4 0 -9 28 -10 62 -2 52 2 67 19 85 12 13 16 23 10 23
-7 0 -9 7 -5 17 11 28 22 -14 22 -89 1 -40 5 -68 11 -68 6 0 10 7 8 16 -2 10
3 19 10 21 6 3 12 -3 12 -12 0 -9 5 -13 10 -10 6 3 10 39 10 80 0 41 5 77 10
80 6 4 8 11 5 16 -4 5 2 6 11 2 14 -5 16 -3 11 10 -6 15 -3 16 13 7 16 -8 20
-21 20 -59z m583 37 c3 -12 2 -29 -3 -37 -8 -13 -9 -12 -10 6 0 12 -3 28 -6
37 -3 9 -2 16 4 16 5 0 12 -10 15 -22z m210 0 c-4 -7 -6 -21 -5 -30 4 -24 -25
-23 -38 1 -8 16 -6 22 7 30 25 15 46 14 36 -1z m221 -83 c-4 -8 -8 -15 -10
-15 -2 0 -4 7 -4 15 0 8 4 15 10 15 5 0 7 -7 4 -15z m-24 -5 c0 -5 -5 -10 -11
-10 -5 0 -7 5 -4 10 3 6 8 10 11 10 2 0 4 -4 4 -10z m-807 -27 c-7 -2 -9 -12
-6 -21 4 -14 3 -15 -5 -2 -11 15 5 47 17 34 3 -4 1 -9 -6 -11z m394 -20 c-3
-10 -5 -4 -5 12 0 17 2 24 5 18 2 -7 2 -21 0 -30z m-1957 -3 c-12 -22 -21 -26
-17 -7 2 10 17 26 25 27 1 0 -2 -9 -8 -20z m2530 -36 c0 -8 -4 -12 -10 -9 -5
3 -10 10 -10 16 0 5 5 9 10 9 6 0 10 -7 10 -16z m35 6 c-3 -5 -11 -10 -16 -10
-6 0 -7 5 -4 10 3 6 11 10 16 10 6 0 7 -4 4 -10z m-608 -37 c-3 -10 -5 -4 -5
12 0 17 2 24 5 18 2 -7 2 -21 0 -30z m-1737 -159 c0 -8 -5 -12 -10 -9 -6 4 -8
11 -5 16 9 14 15 11 15 -7z m1750 -8 c0 -8 -7 -16 -15 -20 -10 -4 -15 1 -15
14 0 11 7 20 15 20 8 0 15 -6 15 -14z m1527 -48 c-3 -8 -6 -5 -6 6 -1 11 2 17
5 13 3 -3 4 -12 1 -19z m0 -95 c-3 -10 -5 -4 -5 12 0 17 2 24 5 18 2 -7 2 -21
0 -30z m20 -104 c-17 -40 -33 -67 -35 -61 -2 6 2 21 9 34 8 13 14 25 15 28 6
25 31 70 40 70 1 0 -11 -32 -29 -71z m1313 22 c0 -5 -6 -11 -12 -14 -18 -6
-39 3 -32 14 7 12 44 12 44 0z m40 -11 c-19 -13 -30 -13 -30 0 0 6 10 10 23
10 18 0 19 -2 7 -10z"/>
<path d="M3842 1836 c1 -10 8 -17 13 -17 15 1 12 24 -3 29 -9 3 -13 -2 -10
-12z"/>
<path d="M1763 1673 c-3 -10 -8 -21 -10 -25 -10 -19 6 -5 21 17 9 14 12 25 6
25 -6 0 -13 -8 -17 -17z"/>
<path d="M1796 1375 c-3 -8 -12 -12 -21 -9 -8 3 -15 1 -15 -5 0 -6 14 -11 30
-11 19 0 30 5 30 14 0 8 8 17 18 19 11 3 8 5 -9 6 -15 0 -29 -5 -33 -14z"/>
<path d="M1808 1323 c7 -3 16 -2 19 1 4 3 -2 6 -13 5 -11 0 -14 -3 -6 -6z"/>
<path d="M1772 610 c0 -14 2 -19 5 -12 2 6 2 18 0 25 -3 6 -5 1 -5 -13z"/>
<path d="M1052 1180 c0 -14 2 -19 5 -12 2 6 2 18 0 25 -3 6 -5 1 -5 -13z"/>
<path d="M4672 1210 c0 -14 2 -19 5 -12 2 6 2 18 0 25 -3 6 -5 1 -5 -13z"/>
<path d="M2840 1064 c0 -8 5 -12 10 -9 6 4 8 11 5 16 -9 14 -15 11 -15 -7z"/>
<path d="M2756 984 c-11 -7 -18 -16 -15 -18 2 -2 13 2 23 10 11 7 18 16 15 18
-2 2 -13 -2 -23 -10z"/>
<path d="M1130 725 c0 -8 5 -15 10 -15 6 0 10 7 10 15 0 8 -4 15 -10 15 -5 0
-10 -7 -10 -15z"/>
<path d="M2291 600 c0 -29 1 -32 10 -17 7 11 7 23 0 35 -9 14 -10 11 -10 -18z"/>
<path d="M975 2660 c-3 -5 1 -10 9 -10 9 0 16 5 16 10 0 6 -4 10 -9 10 -6 0
-13 -4 -16 -10z"/>
<path d="M631 2644 c0 -11 3 -14 6 -6 3 7 2 16 -1 19 -3 4 -6 -2 -5 -13z"/>
<path d="M9091 2624 c0 -11 3 -14 6 -6 3 7 2 16 -1 19 -3 4 -6 -2 -5 -13z"/>
<path d="M3030 2514 c0 -8 5 -12 10 -9 6 3 10 10 10 16 0 5 -4 9 -10 9 -5 0
-10 -7 -10 -16z"/>
<path d="M5036 2432 c-4 -13 -5 -26 -2 -29 10 -11 18 4 14 29 l-4 23 -8 -23z"/>
<path d="M4356 2411 c-4 -5 -2 -12 3 -15 5 -4 12 -2 15 3 4 5 2 12 -3 15 -5 4
-12 2 -15 -3z"/>
<path d="M8021 2404 c0 -11 3 -14 6 -6 3 7 2 16 -1 19 -3 4 -6 -2 -5 -13z"/>
<path d="M4510 2354 c0 -8 5 -12 10 -9 6 3 10 10 10 16 0 5 -4 9 -10 9 -5 0
-10 -7 -10 -16z"/>
<path d="M3813 2353 c-18 -2 -33 -9 -33 -15 0 -13 69 -3 84 12 11 11 11 11
-51 3z"/>
<path d="M3928 2343 c7 -3 16 -2 19 1 4 3 -2 6 -13 5 -11 0 -14 -3 -6 -6z"/>
<path d="M2703 2300 c0 -25 2 -35 4 -22 2 12 2 32 0 45 -2 12 -4 2 -4 -23z"/>
<path d="M5190 2320 c0 -5 7 -10 16 -10 8 0 12 5 9 10 -3 6 -10 10 -16 10 -5
0 -9 -4 -9 -10z"/>
<path d="M3927 2303 c-14 -13 -6 -23 19 -23 22 0 25 2 14 15 -14 16 -23 19
-33 8z"/>
<path d="M3881 2192 c2 -59 -1 -113 -5 -120 -5 -8 0 -12 13 -12 20 0 21 6 21
104 0 74 -4 106 -12 109 -10 4 -10 6 0 6 18 1 15 21 -4 21 -13 0 -15 -15 -13
-108z"/>
<path d="M3735 2280 c-4 -6 13 -10 44 -10 28 0 51 5 51 10 0 6 -20 10 -44 10
-25 0 -48 -4 -51 -10z"/>
<path d="M3181 2220 c2 -59 7 -65 29 -38 15 19 20 20 34 9 20 -17 21 -31 1
-31 -8 0 -15 -8 -15 -18 0 -11 -7 -33 -15 -50 -9 -17 -17 -44 -18 -61 -1 -20
-6 -29 -14 -26 -10 3 -13 -28 -13 -136 0 -116 3 -141 15 -145 9 -4 13 -13 10
-24 -7 -23 16 -42 35 -30 23 14 30 12 30 -9 0 -11 5 -23 10 -26 6 -4 10 13 10
44 0 40 4 54 20 63 11 7 20 23 20 35 0 16 7 23 28 26 l27 4 -27 2 c-18 0 -28
7 -28 16 0 18 16 20 23 3 3 -8 6 -6 6 5 1 9 8 18 16 18 8 1 20 3 25 4 6 1 21
3 35 4 25 1 25 2 25 84 0 88 5 104 26 86 21 -17 28 13 18 79 l-9 57 -3 -57
c-2 -43 -7 -58 -17 -58 -11 0 -15 13 -15 49 0 55 5 51 -83 51 -34 -1 -49 3
-53 15 -3 8 -12 15 -20 15 -8 0 -14 9 -14 20 0 13 -5 18 -15 14 -8 -4 -15 -4
-15 -2 0 9 38 49 43 46 3 -2 8 0 12 4 4 3 -23 5 -59 5 l-66 -2 1 -45z m119
-116 c0 -8 4 -14 8 -14 13 0 32 -87 32 -148 l0 -59 -29 5 c-27 4 -30 8 -35 56
-3 28 -8 74 -12 103 -4 37 -2 56 8 66 15 17 28 13 28 -9z m57 -30 c-3 -3 -12
-4 -19 -1 -8 3 -5 6 6 6 11 1 17 -2 13 -5z m83 -54 c0 -5 -4 -10 -10 -10 -5 0
-10 5 -10 10 0 6 5 10 10 10 6 0 10 -4 10 -10z m-50 -80 c0 -43 -4 -60 -13
-60 -10 0 -13 17 -13 60 0 43 3 60 13 60 9 0 13 -17 13 -60z m-50 -80 c0 -5
-4 -10 -10 -10 -5 0 -10 5 -10 10 0 6 5 10 10 10 6 0 10 -4 10 -10z"/>
<path d="M4702 2261 c-11 -7 -11 -9 2 -14 10 -4 16 -1 16 8 0 17 -1 17 -18 6z"/>
<path d="M4800 2250 c0 -5 5 -10 11 -10 5 0 7 5 4 10 -3 6 -8 10 -11 10 -2 0
-4 -4 -4 -10z"/>
<path d="M5920 2236 c0 -2 7 -6 15 -10 8 -3 15 -1 15 4 0 6 -7 10 -15 10 -8 0
-15 -2 -15 -4z"/>
<path d="M3850 2220 c0 -5 5 -10 11 -10 5 0 7 5 4 10 -3 6 -8 10 -11 10 -2 0
-4 -4 -4 -10z"/>
<path d="M4410 2199 c0 -5 5 -7 10 -4 6 3 10 8 10 11 0 2 -4 4 -10 4 -5 0 -10
-5 -10 -11z"/>
<path d="M6618 2202 c-10 -2 -18 -10 -18 -18 0 -10 5 -12 18 -7 9 5 34 8 55 8
20 0 36 4 34 9 -3 10 -58 15 -89 8z"/>
<path d="M7540 2170 c0 -5 5 -10 11 -10 5 0 7 5 4 10 -3 6 -8 10 -11 10 -2 0
-4 -4 -4 -10z"/>
<path d="M3848 2153 c7 -3 16 -2 19 1 4 3 -2 6 -13 5 -11 0 -14 -3 -6 -6z"/>
<path d="M3380 1740 c-13 -8 -12 -10 3 -10 9 0 17 5 17 10 0 12 -1 12 -20 0z"/>
<path d="M3447 1723 c-13 -12 -7 -33 8 -33 8 0 15 5 15 10 0 6 -5 10 -11 10
-5 0 -7 5 -4 10 7 11 2 13 -8 3z"/>
<path d="M3290 1660 c0 -5 5 -10 10 -10 6 0 10 5 10 10 0 6 -4 10 -10 10 -5 0
-10 -4 -10 -10z"/>
<path d="M3188 1638 c-2 -7 -3 -33 -2 -58 1 -25 3 -54 3 -64 2 -41 12 -5 15
52 3 59 -6 99 -16 70z"/>
<path d="M3325 1610 c-3 -5 -1 -10 4 -10 6 0 11 5 11 10 0 6 -2 10 -4 10 -3 0
-8 -4 -11 -10z"/>
<path d="M3440 1610 c0 -5 5 -10 10 -10 6 0 10 5 10 10 0 6 -4 10 -10 10 -5 0
-10 -4 -10 -10z"/>
<path d="M3271 1564 c0 -11 3 -14 6 -6 3 7 2 16 -1 19 -3 4 -6 -2 -5 -13z"/>
<path d="M3225 1500 c-3 -6 1 -7 9 -4 18 7 21 14 7 14 -6 0 -13 -4 -16 -10z"/>
<path d="M3318 1403 c6 -2 18 -2 25 0 6 3 1 5 -13 5 -14 0 -19 -2 -12 -5z"/>
<path d="M3305 1360 c3 -5 15 -10 26 -10 10 0 19 5 19 10 0 6 -12 10 -26 10
-14 0 -23 -4 -19 -10z"/>
<path d="M2890 1116 c0 -9 7 -24 15 -32 20 -21 20 4 0 30 -14 18 -15 18 -15 2z"/>
<path d="M3356 1105 c-10 -7 -16 -19 -14 -25 2 -6 13 0 26 14 24 28 18 34 -12
11z"/>
<path d="M3450 1102 c0 -4 5 -13 12 -20 8 -8 8 -15 -2 -27 -9 -11 -10 -19 -3
-26 13 -13 5 -49 -11 -50 -14 -1 33 -17 55 -18 12 -1 16 13 17 74 l2 75 -35 0
c-19 0 -35 -4 -35 -8z"/>
<path d="M3050 1091 c0 -6 5 -13 10 -16 6 -3 10 1 10 9 0 9 -4 16 -10 16 -5 0
-10 -4 -10 -9z"/>
<path d="M3363 1046 c-15 -13 -25 -27 -22 -30 3 -4 21 7 39 24 38 36 24 41
-17 6z"/>
<path d="M3545 1060 c-3 -5 -1 -10 4 -10 6 0 11 5 11 10 0 6 -2 10 -4 10 -3 0
-8 -4 -11 -10z"/>
<path d="M3407 1043 c-4 -3 -7 -11 -7 -17 0 -6 5 -5 12 2 6 6 9 14 7 17 -3 3
-9 2 -12 -2z"/>
<path d="M3240 1029 c0 -5 5 -7 10 -4 6 3 10 8 10 11 0 2 -4 4 -10 4 -5 0 -10
-5 -10 -11z"/>
<path d="M3090 1020 c0 -5 5 -10 10 -10 6 0 10 5 10 10 0 6 -4 10 -10 10 -5 0
-10 -4 -10 -10z"/>
<path d="M3370 987 c-14 -12 -39 -32 -55 -45 -18 -14 -22 -21 -11 -18 14 5 17
2 12 -10 -3 -9 -9 -28 -13 -42 -6 -26 -6 -26 11 -9 10 9 21 15 25 13 4 -3 23
9 42 26 22 21 29 33 21 36 -8 2 -24 -5 -36 -17 -29 -27 -36 -27 -36 5 0 14 4
22 10 19 8 -5 70 48 70 60 0 11 -16 3 -40 -18z"/>
<path d="M3650 994 c0 -8 5 -12 10 -9 6 4 8 11 5 16 -9 14 -15 11 -15 -7z"/>
<path d="M3240 960 c0 -5 4 -10 9 -10 6 0 13 5 16 10 3 6 -1 10 -9 10 -9 0
-16 -4 -16 -10z"/>
<path d="M3537 955 c-4 -8 -2 -17 2 -20 5 -2 11 4 14 15 6 23 -8 27 -16 5z"/>
<path d="M3646 945 c-3 -9 0 -15 9 -15 9 0 12 6 9 15 -4 8 -7 15 -9 15 -2 0
-5 -7 -9 -15z"/>
<path d="M3240 895 c0 -16 16 -20 24 -6 3 5 -1 11 -9 15 -9 3 -15 0 -15 -9z"/>
<path d="M3645 880 c3 -5 8 -10 11 -10 2 0 4 5 4 10 0 6 -5 10 -11 10 -5 0 -7
-4 -4 -10z"/>
</g>
</svg>
